<?xml version="1.0" standalone="no"?><!DOCTYPE svg PUBLIC "-//W3C//DTD SVG 1.1//EN" "http://www.w3.org/Graphics/SVG/1.1/DTD/svg11.dtd"><svg t="1561104338777" class="icon" viewBox="0 0 1024 1024" version="1.1" xmlns="http://www.w3.org/2000/svg" p-id="4299" width="48" height="48" xmlns:xlink="http://www.w3.org/1999/xlink"><defs><style type="text/css"></style></defs><path d="M231.424 118.784H332.8l81.92 71.68 23.04 91.136v140.8l-75.776 16.384-130.56-10.24L107.52 333.824s9.216-126.976 11.264-134.144 47.104-80.896 47.104-80.896h65.536zM634.88 184.32l120.32-65.536 46.08-6.144s66.56 52.224 67.584 56.32 34.816 99.84 34.816 99.84L897.536 354.816l-79.36 67.584-121.856 10.24h-104.96v-163.84L634.88 184.32zM352.256 588.8l-189.44 33.28L87.04 774.144l111.616 137.216h87.04l81.92-40.96 54.784-67.584 15.36-175.616-25.6-46.08z" p-id="4300"></path><path d="M486.4 480.256h-217.6c-115.2 0-204.8-96.256-204.8-210.944s96.256-210.944 210.944-210.944S486.4 153.6 486.4 268.8v211.456z m-217.6-339.456c-70.656 0-128 57.344-128 128s57.344 128 128 128h128v-128c0-70.656-51.2-128-128-128zM755.2 480.256H537.6v-210.944c0-115.2 96.256-210.944 210.944-210.944s210.944 96.256 210.944 210.944-89.088 210.944-204.288 210.944z m-128-83.456h128c70.656 0 128-57.856 128-128s-57.344-128-128-128-128 57.856-128 128v128zM268.8 966.656c-115.2 0-210.944-96.256-210.944-211.456s96.256-210.944 210.944-210.944h210.944v210.944c6.656 115.2-89.6 211.456-210.944 211.456z m0-339.456c-70.656 0-128 57.344-128 128s57.344 128 128 128 128-57.344 128-128v-128h-128zM755.2 966.656c-115.2 0-210.944-96.256-210.944-211.456V543.744h210.944c115.2 0 210.944 96.256 210.944 210.944s-95.744 211.968-210.944 211.968z m-128-339.456v128c0 70.656 57.344 128 128 128s128-57.344 128-128-57.344-128-128-128h-128z" p-id="4301"></path></svg>
