<?xml version="1.0" standalone="no"?><!DOCTYPE svg PUBLIC "-//W3C//DTD SVG 1.1//EN" "http://www.w3.org/Graphics/SVG/1.1/DTD/svg11.dtd"><svg t="1561105215137" class="icon" viewBox="0 0 1024 1024" version="1.1" xmlns="http://www.w3.org/2000/svg" p-id="19643" xmlns:xlink="http://www.w3.org/1999/xlink" width="48" height="48"><defs><style type="text/css"></style></defs><path d="M403.968 931.328H141.312c-3.584 0-6.656 0-10.24-0.512h-1.536c-6.144-1.024-12.288-3.072-18.432-5.12l-1.024-0.512c-1.024-0.512-1.536-1.024-2.56-1.536l-7.68-4.608c-1.024-0.512-3.584-2.56-5.12-3.584l-1.536-1.024c-3.584-3.072-6.656-6.144-10.24-10.24l-2.56-3.072c-4.096-5.632-7.168-11.264-10.24-17.408 0-0.512-0.512-1.024-0.512-2.048-1.536-5.12-3.072-10.24-4.096-15.872 0-0.512 0-1.536-0.512-3.072 0-1.536-0.512-4.096-0.512-4.608V175.104v-6.656-3.584c1.024-6.144 2.56-12.288 5.12-18.944 0 0 0-0.512 0.512-1.024 0-0.512 1.024-2.048 1.024-2.048 2.56-5.12 5.632-10.24 8.704-14.848l0.512-0.512c1.024-1.536 2.56-2.56 3.584-4.096 2.048-2.048 4.096-4.608 6.144-6.656 0.512-0.512 2.048-2.048 3.584-3.072l1.536-1.536c4.608-3.072 9.216-6.144 13.824-8.192l1.536-1.024c0.512 0 1.024-0.512 1.024-0.512 3.072-1.024 6.144-2.048 8.704-3.072 3.072-1.024 6.656-1.536 10.24-2.048 1.536 0 2.56 0 4.096-0.512h600.576c3.072 0 6.144 0 8.704 0.512 5.12 1.024 9.728 2.048 14.848 3.584 1.024 0.512 3.072 1.024 4.608 1.536l1.536 0.512c4.608 2.048 9.216 5.12 13.824 8.192l1.536 1.024c0.512 0 0.512 0.512 1.024 1.024 2.048 1.536 4.096 3.584 6.656 6.144 2.048 2.048 4.096 4.096 6.144 6.656l0.512 0.512v0.512c0.512 1.024 1.536 2.048 2.048 3.072 2.56 3.584 4.608 7.68 7.168 12.288 0 0.512 0.512 1.536 1.024 2.56 0.512 1.536 1.536 3.584 1.536 4.096 1.024 3.584 2.048 7.168 2.56 10.752 0.512 1.536 0.512 2.56 0.512 4.096 0.512 2.56 0.512 5.632 0.512 9.216V585.728c0 17.92 14.848 32.768 32.256 32.768s32.256-14.848 32.256-32.768V175.616c0-26.112-7.168-51.712-19.968-74.24-16.384-27.648-41.984-49.152-74.24-61.44-20.992-8.192-43.52-8.192-63.488-8.192H158.72c-17.408 0-35.328 0-53.248 4.608C44.032 52.224 0 110.592 0 175.616v673.792c0 43.52 16.384 82.944 46.08 110.08 24.576 22.528 55.808 35.328 90.112 37.376h267.776c17.408 0 32.256-14.848 32.256-32.768 0-17.92-14.848-32.768-32.256-32.768z" p-id="19644"></path><path d="M659.456 510.976c0-17.408-14.848-32.768-32.256-32.768H254.976c-17.408 0-32.256 14.848-32.256 32.768 0 17.92 14.848 32.768 32.256 32.768h371.712c17.92 0 32.768-14.848 32.768-32.768zM1013.76 685.568c-6.144-6.656-14.848-9.728-24.064-9.728-8.704 0-17.408 3.584-24.064 9.728l-226.304 228.864-100.864-102.4c-6.144-6.656-14.848-9.728-23.552-9.728-8.704 0-16.896 3.584-23.04 9.728-6.656 6.656-9.728 14.848-9.728 24.064 0 8.704 3.584 16.896 9.728 22.528l117.76 119.296c1.536 3.072 3.072 5.632 6.144 8.704 6.144 6.656 14.848 9.728 24.064 9.728 8.704 0 17.408-3.584 24.064-9.728l250.368-253.44c12.8-13.312 12.8-34.816-0.512-47.616zM254.976 705.024c-17.408 0-32.256 14.848-32.256 32.768s14.848 32.768 32.256 32.768h148.992c17.408 0 32.256-14.848 32.256-32.768s-14.848-32.768-32.256-32.768H254.976zM627.2 251.904H254.976c-17.408 0-32.256 14.848-32.256 32.768 0 17.408 14.848 32.768 32.256 32.768h371.712c17.408 0 32.256-14.848 32.256-32.768 0.512-17.408-14.336-32.768-31.744-32.768z" p-id="19645"></path></svg>
