<?xml version="1.0" standalone="no"?><!DOCTYPE svg PUBLIC "-//W3C//DTD SVG 1.1//EN" "http://www.w3.org/Graphics/SVG/1.1/DTD/svg11.dtd"><svg t="1563849327416" class="icon" viewBox="0 0 1024 1024" version="1.1" xmlns="http://www.w3.org/2000/svg" p-id="16877" xmlns:xlink="http://www.w3.org/1999/xlink" width="128" height="128"><defs><style type="text/css"></style></defs><path d="M896 220a16 16 0 0 1 16 16v544a16 16 0 0 1-16 16H128a16 16 0 0 1-16-16v-544a16 16 0 0 1 16-16h768m0-48H128a64 64 0 0 0-64 64v544a64 64 0 0 0 64 64h768a64 64 0 0 0 64-64v-544a64 64 0 0 0-64-64z"  p-id="16878"></path><path d="M368 340a64 64 0 1 1-64 64 64 64 0 0 1 64-64m0-32a96 96 0 1 0 96 96 96 96 0 0 0-96-96z"  p-id="16879"></path><path d="M560 692a16 16 0 0 1-32 0 160 160 0 0 0-320 0 16 16 0 0 1-32 0 192 192 0 0 1 384 0z" p-id="16880"></path><path d="M608 376m24 0l192 0q24 0 24 24l0 0q0 24-24 24l-192 0q-24 0-24-24l0 0q0-24 24-24Z" p-id="16881"></path><path d="M608 488m24 0l192 0q24 0 24 24l0 0q0 24-24 24l-192 0q-24 0-24-24l0 0q0-24 24-24Z"  p-id="16882"></path><path d="M608 600m24 0l192 0q24 0 24 24l0 0q0 24-24 24l-192 0q-24 0-24-24l0 0q0-24 24-24Z"  p-id="16883"></path></svg>
