<?xml version="1.0" standalone="no"?><!DOCTYPE svg PUBLIC "-//W3C//DTD SVG 1.1//EN" "http://www.w3.org/Graphics/SVG/1.1/DTD/svg11.dtd"><svg t="1583982600598" class="icon" viewBox="0 0 1024 1024" version="1.1" xmlns="http://www.w3.org/2000/svg" p-id="3600" xmlns:xlink="http://www.w3.org/1999/xlink" width="16" height="16"><defs><style type="text/css"></style></defs><path d="M1002.604 415.636c-8.677-46.241-40.799-76.854-82.998-76.854h-1.833c-42.738 0-77.608-35.031-77.608-77.985 0-9.701 4.743-23.822 6.79-28.78 18.163-40.96 4.258-91.19-33.522-117.652L695.027 48.128l-4.851-2.317a95.394 95.394 0 0 0-38.05-7.546c-27.378 0-54.972 10.618-73.512 29.912-17.678 18.27-49.368 39.45-63.92 39.45-14.605 0-46.564-21.665-64.134-40.205a102.4 102.4 0 0 0-111.885-23.067L215.04 112.101l-4.85 3.126a96.687 96.687 0 0 0-32.66 116.736c2.317 5.282 7.006 19.348 7.006 29.05 0 42.953-34.87 77.931-80.627 77.931h-1.94c-39.182 0-71.249 30.612-79.98 77.608-2.425 13.205-10.186 59.177-10.186 97.334 0 38.266 7.76 84.076 10.294 98.143 8.73 46.026 40.96 76.907 80.141 76.907h4.743c42.685 0 77.608 34.978 77.608 77.824 0 9.324-4.419 23.013-6.952 28.78-18 40.96-4.204 91.082 32.822 117.221l116.682 65.806 4.743 2.317c11.857 5.336 24.953 7.761 38.103 7.761 27.864 0 56.05-11.264 74.483-31.474 17.246-18.756 50.823-42.038 65.213-42.038 15.036 0 47.696 23.174 65.643 42.9 18.486 20.48 45.487 32.337 74.321 32.337 13.528 0 26.409-2.587 38.373-7.761l121.425-66.991 4.85-3.126c36.649-25.654 50.554-75.776 32.553-116.575-2.156-5.335-6.899-19.402-6.899-29.049 0-42.954 34.87-77.824 80.843-77.824 39.45-0.539 72.757-30.18 81.704-77.608 2.425-13.204 10.186-59.177 10.186-97.334 0.216-38.373-7.653-84.507-10.078-98.412zM932.27 598.232c-1.67 9.162-6.467 19.024-12.342 19.024-84.453 0-151.282 65.59-151.282 149.397 0 24.791 9.54 49.583 12.45 56.59 4.85 10.94 0.97 24.467-7.6 30.396l-0.27 0.161-115.603 63.758a25.492 25.492 0 0 1-7.761 1.078 28.672 28.672 0 0 1-21.02-8.57c-6.574-7.114-62.355-66.452-118.783-66.452-57.398 0-117.275 64.405-117.922 64.997a31.259 31.259 0 0 1-30.504 7.007l-1.186-0.54-110.484-62.355a25.708 25.708 0 0 1-6.845-28.35c2.587-6.035 12.935-31.959 12.935-57.72A149.504 149.504 0 0 0 106.98 617.256h-4.743c-1.67-0.377-7.383-5.82-9.916-18.647-2.048-11.264-8.947-52.925-8.947-84.884 0-25.385 4.581-60.255 8.947-84.615 2.263-12.18 7.599-18 9.323-18.863h2.264C189.171 410.085 256 344.44 256 260.689c0-25.762-10.456-51.793-12.611-56.751a25.87 25.87 0 0 1 7.006-29.804l1.24-0.7 117.167-64.297a31.636 31.636 0 0 1 29.642 7.276c2.425 2.533 59.93 62.464 116.09 62.464 55.457 0 112.855-58.746 115.226-61.279a32.768 32.768 0 0 1 22.097-8.246c3.234 0 6.252 0.54 8.677 1.456l0.97 0.539 112.424 62.733c8.085 7.168 11.48 19.51 7.384 28.834-2.587 5.928-12.935 31.69-12.935 57.72A149.288 149.288 0 0 0 917.45 410.032c10.24 0 13.474 13.043 14.552 18.648 4.311 23.821 9.054 59.068 9.054 84.83 0.27 26.139-4.581 61.871-8.839 84.615z" p-id="3601"></path><path d="M512.377 322.83a190.787 190.787 0 1 0-0.108 381.466 190.787 190.787 0 0 0 0.108-381.52z m0 309.894c-65.751 0-119.269-53.41-119.269-119.107a119.161 119.161 0 1 1 238.377 0c0 65.59-53.356 119.107-119.108 119.107z" p-id="3602"></path></svg>