<?xml version="1.0" standalone="no"?><!DOCTYPE svg PUBLIC "-//W3C//DTD SVG 1.1//EN" "http://www.w3.org/Graphics/SVG/1.1/DTD/svg11.dtd"><svg t="1585708778508" class="icon" viewBox="0 0 1024 1024" version="1.1" xmlns="http://www.w3.org/2000/svg" p-id="2247" xmlns:xlink="http://www.w3.org/1999/xlink" width="16" height="16"><defs><style type="text/css"></style></defs><path d="M928 64H96c-19.2 0-32 12.8-32 32v832c0 19.2 12.8 32 32 32h832c19.2 0 32-12.8 32-32V96c0-19.2-12.8-32-32-32z m-32 832H128V128h768v768z" p-id="2248"></path><path d="M480 832l3.2-64c-48-3.2-92.8-12.8-124.8-28.8-25.6-12.8-38.4-25.6-38.4-35.2v-105.6c48 25.6 115.2 41.6 192 41.6 140.8 0 256-51.2 256-128v-192c0-76.8-115.2-128-256-128s-256 51.2-256 128v384c0 70.4 96 118.4 224 128zM364.8 281.6c38.4-16 89.6-25.6 147.2-25.6s108.8 9.6 147.2 25.6c32 12.8 44.8 28.8 44.8 38.4s-16 25.6-44.8 38.4c-38.4 16-89.6 25.6-147.2 25.6s-108.8-9.6-147.2-25.6c-32-12.8-44.8-28.8-44.8-38.4s16-25.6 44.8-38.4zM320 406.4c48 25.6 115.2 41.6 192 41.6s144-16 192-41.6V512c0 9.6-16 25.6-44.8 38.4-38.4 16-89.6 25.6-147.2 25.6s-108.8-9.6-147.2-25.6c-32-12.8-44.8-28.8-44.8-38.4v-105.6z" p-id="2249"></path><path d="M761.6 704H672v-51.2c0-3.2-3.2-6.4-6.4-6.4h-3.2l-112 83.2c-3.2 3.2-3.2 6.4 0 9.6l112 83.2c3.2 3.2 6.4 0 9.6 0V768h89.6c3.2 0 6.4-3.2 6.4-6.4v-51.2c0-3.2-3.2-6.4-6.4-6.4z" p-id="2250"></path></svg>