<?xml version="1.0" standalone="no"?><!DOCTYPE svg PUBLIC "-//W3C//DTD SVG 1.1//EN" "http://www.w3.org/Graphics/SVG/1.1/DTD/svg11.dtd"><svg t="1565320993114" class="icon" viewBox="0 0 1024 1024" version="1.1" xmlns="http://www.w3.org/2000/svg" p-id="6478" xmlns:xlink="http://www.w3.org/1999/xlink" width="64" height="64"><defs><style type="text/css"></style></defs><path d="M477.866667 503.466667H315.733333c-12.8 0-21.333333-8.533333-21.333333-21.333334s8.533333-21.333333 21.333333-21.333333h166.4c12.8 0 21.333333 8.533333 21.333334 21.333333-4.266667 12.8-12.8 21.333333-25.6 21.333334zM635.733333 657.066667H315.733333c-12.8 0-21.333333-8.533333-21.333333-21.333334s8.533333-21.333333 21.333333-21.333333h320c12.8 0 21.333333 8.533333 21.333334 21.333333-4.266667 12.8-12.8 21.333333-21.333334 21.333334z"  p-id="6479"></path><path d="M742.4 874.666667H217.6c-12.8 0-21.333333-8.533333-21.333333-21.333334V243.2c0-12.8 8.533333-21.333333 21.333333-21.333333h384c12.8 0 21.333333 8.533333 21.333333 21.333333s-8.533333 21.333333-21.333333 21.333333H238.933333v571.733334h482.133334V413.866667c0-12.8 8.533333-21.333333 21.333333-21.333334s21.333333 8.533333 21.333333 21.333334V853.333333c-4.266667 12.8-12.8 21.333333-21.333333 21.333334z"  p-id="6480"></path><path d="M571.733333 435.2c-4.266667 0-8.533333 0-12.8-4.266667-8.533333-8.533333-8.533333-21.333333 0-29.866666l234.666667-247.466667c8.533333-8.533333 21.333333-8.533333 29.866667 0 8.533333 8.533333 8.533333 21.333333 0 29.866667l-234.666667 247.466666c-8.533333 4.266667-12.8 4.266667-17.066667 4.266667z"  p-id="6481"></path></svg>
