<?xml version="1.0" standalone="no"?><!DOCTYPE svg PUBLIC "-//W3C//DTD SVG 1.1//EN" "http://www.w3.org/Graphics/SVG/1.1/DTD/svg11.dtd"><svg t="1583982543867" class="icon" viewBox="0 0 1024 1024" version="1.1" xmlns="http://www.w3.org/2000/svg" p-id="1956" xmlns:xlink="http://www.w3.org/1999/xlink" width="16" height="16"><defs><style type="text/css"></style></defs><path d="M1006.479087 496.425856H919.847909c36.015209-81.764259 32.121673-147.954373 18.494296-192.730039-23.361217-79.81749-102.205323-166.448669-219.011407-166.448669-31.148289 0-62.296578 5.840304-94.41825 17.520913C569.429658 175.209125 532.441065 197.596958 515.893536 209.277567c-16.547529-11.680608-52.562738-34.068441-109.019011-54.509506-32.121673-11.680608-64.243346-17.520913-94.418251-17.520913-116.806084 0-195.65019 86.631179-219.011407 166.448669-13.627376 47.695817-18.494297 119.726236 27.254753 210.250951H15.574144c-8.760456 0-15.574144 6.813688-15.574144 15.574145 0 8.760456 6.813688 15.574144 15.574144 15.574144h123.619772c4.86692 8.760456 10.707224 17.520913 17.520913 26.281369 101.231939 146.007605 321.21673 304.669202 361.125475 314.403042v0.973384s0.973384 0 1.946768-0.973384h2.920152v-0.973384c34.068441-16.547529 245.292776-152.821293 356.258555-314.403042 10.707224-14.60076 19.467681-29.201521 27.254753-43.802282h102.205324c8.760456 0 15.574144-6.813688 15.574144-15.574144 0-8.760456-8.760456-14.60076-17.520913-14.60076z m-155.741444 57.429657c-103.178707 150.874525-292.988593 272.547529-333.870723 298.828898-41.855513-26.281369-230.692015-148.927757-334.844106-298.828898l-5.840304-8.760456h143.087452c5.840304 0 11.680608-2.920152 14.60076-8.760456l65.21673-128.486692 102.205324 261.840304c1.946768 5.840304 8.760456 9.73384 14.60076 9.73384h0.973384c6.813688 0 12.653992-4.86692 14.600761-11.680608l89.55133-306.61597 47.695818 154.768061c1.946768 5.840304 6.813688 9.73384 12.653992 10.707224 5.840304 0.973384 11.680608-1.946768 15.574145-6.813688l37.961977-55.482889 32.121673 54.509505c2.920152 4.86692 7.787072 7.787072 13.627376 7.787072h87.604563c-5.840304 9.73384-11.680608 18.494297-17.520912 27.254753zM885.779468 496.425856h-95.391635l-39.908746-68.136883c-2.920152-4.86692-7.787072-7.787072-13.627376-7.787072-5.840304 0-10.707224 1.946768-13.627376 6.813688l-33.095057 48.669202-53.536122-174.235742c-1.946768-6.813688-8.760456-10.707224-15.574145-11.680608-6.813688 0-13.627376 4.86692-15.574144 11.680608l-90.524715 312.456274-98.311787-251.13308c-1.946768-5.840304-7.787072-9.73384-13.627376-9.73384-6.813688 0-11.680608 2.920152-14.600761 8.760456l-76.897338 150.874525H156.714829c-38.935361-71.057034-49.642586-139.193916-32.121673-200.51711 20.441065-69.110266 87.604563-143.087452 188.836502-143.087453 27.254753 0 55.48289 5.840304 83.711026 15.574145 71.057034 26.281369 109.019011 56.456274 109.992396 56.456274 5.840304 4.86692 13.627376 4.86692 19.46768 0 0 0 37.961977-30.174905 109.992396-56.456274 28.228137-10.707224 56.456274-15.574144 83.711027-15.574145 100.258555 0 168.395437 73.977186 188.836501 143.087453 16.547529 56.456274 7.787072 118.752852-23.361216 183.969582z" p-id="1957" ></path></svg>
