<?xml version="1.0" standalone="no"?><!DOCTYPE svg PUBLIC "-//W3C//DTD SVG 1.1//EN" "http://www.w3.org/Graphics/SVG/1.1/DTD/svg11.dtd"><svg t="1563849457078" class="icon" viewBox="0 0 1024 1024" version="1.1" xmlns="http://www.w3.org/2000/svg" p-id="21161" xmlns:xlink="http://www.w3.org/1999/xlink" width="128" height="128"><defs><style type="text/css"></style></defs><path d="M701.4 669.9H322.6c-3.1 0-5.7-2.5-5.7-5.7v-33.9c0-3.1 2.5-5.7 5.7-5.7h378.8c3.1 0 5.7 2.5 5.7 5.7v33.9c-0.1 3.1-2.6 5.7-5.7 5.7z m0-219.1H322.6c-3.1 0-5.7-2.5-5.7-5.7v-33.9c0-3.1 2.5-5.7 5.7-5.7h378.8c3.1 0 5.7 2.5 5.7 5.7v33.9c-0.1 3.1-2.6 5.7-5.7 5.7z m0 109.9H322.6c-3.1 0-5.7-2.5-5.7-5.7v-33.9c0-3.1 2.5-5.7 5.7-5.7h378.8c3.1 0 5.7 2.5 5.7 5.7V555c-0.1 3.2-2.6 5.7-5.7 5.7z" p-id="21162"></path><path d="M692.9 671.1H331.1c-8.5 0-15.4-6.9-15.4-15.4v-17c0-8.5 6.9-15.4 15.4-15.4h361.8c8.5 0 15.4 6.9 15.4 15.4v17c0 8.5-6.9 15.4-15.4 15.4z m-361.8-45.2c-7.1 0-12.9 5.8-12.9 12.9v17c0 7.1 5.8 12.9 12.9 12.9h361.8c7.1 0 12.9-5.8 12.9-12.9v-17c0-7.1-5.8-12.9-12.9-12.9H331.1z m361.8-64H331.1c-8.5 0-15.4-6.9-15.4-15.4v-17c0-8.5 6.9-15.4 15.4-15.4h361.8c8.5 0 15.4 6.9 15.4 15.4v17c0 8.5-6.9 15.4-15.4 15.4z m-361.8-45.2c-7.1 0-12.9 5.8-12.9 12.9v17c0 7.1 5.8 12.9 12.9 12.9h361.8c7.1 0 12.9-5.8 12.9-12.9v-17c0-7.1-5.8-12.9-12.9-12.9H331.1zM692.9 452H331.1c-8.5 0-15.4-6.9-15.4-15.4v-17c0-8.5 6.9-15.4 15.4-15.4h361.8c8.5 0 15.4 6.9 15.4 15.4v17c0 8.5-6.9 15.4-15.4 15.4z m-361.8-45.2c-7.1 0-12.9 5.8-12.9 12.9v17c0 7.1 5.8 12.9 12.9 12.9h361.8c7.1 0 12.9-5.8 12.9-12.9v-17c0-7.1-5.8-12.9-12.9-12.9H331.1zM673.9 293.4H350.1c-17.3 0-31.3-14.1-31.3-31.3V156.3c0-17.3 14.1-31.3 31.3-31.3h72.8c17.8-33.4 52.3-54.4 90.9-54.4s73.1 21 90.9 54.4h69.2c17.3 0 31.3 14.1 31.3 31.3V262c0 17.3-14 31.4-31.3 31.4z m-320.2-35h316.6v-98.5h-88.7l-4.3-11.1c-10.3-26.3-35.2-43.3-63.5-43.3-28.3 0-53.2 17-63.5 43.3l-4.3 11.1h-92.3v98.5z" p-id="21163"></path><path d="M765.9 847.5l-248.3-0.1H258.1c-43.4 0-66.3-20.4-77.9-37.5-16.3-23.9-16.8-50.2-16.8-53.2V465.2l-0.1-199.2c0-36.6 17.3-65 48.6-79.8 22.2-10.5 43.7-10.8 46.1-10.8h76.1v34.9H258c-6 0.1-59.7 2.1-59.7 55.7l0.1 200.8v290.8c0.2 3.8 1.7 19.4 10.7 32.7 10.1 14.9 26.1 22.1 49 22.1h257l1.5-0.1 249.3 0.1c6-0.1 59.7-2.1 59.7-55.7l-0.1-200.6V265.3c-0.2-3.8-1.6-19.4-10.7-32.7-10.1-14.9-26.1-22.1-48.9-22.1h-80v-34.9h80c43.4 0 66.3 20.4 77.9 37.4 16.3 24 16.8 50.3 16.8 53.2v48.3-0.1 243.3l0.1 199.1c0 36.6-17.3 65-48.6 79.8-22.4 10.6-43.9 10.9-46.2 10.9z" p-id="21164"></path></svg>