<?xml version="1.0" standalone="no"?><!DOCTYPE svg PUBLIC "-//W3C//DTD SVG 1.1//EN" "http://www.w3.org/Graphics/SVG/1.1/DTD/svg11.dtd"><svg t="1561105045633" class="icon" viewBox="0 0 1024 1024" version="1.1" xmlns="http://www.w3.org/2000/svg" p-id="11815" xmlns:xlink="http://www.w3.org/1999/xlink" width="48" height="48"><defs><style type="text/css"></style></defs><path d="M663.936 659.264a180 180 0 0 1 34.048-3.264c3.2 0 6.144 0.32 9.248 0.448a279.2 279.2 0 0 0-66.496-106.496 279.488 279.488 0 0 0-109.696-68 162.528 162.528 0 0 0 73.856-136.224 162.88 162.88 0 0 0-162.592-162.592 162.88 162.88 0 0 0-162.624 162.592c0 56.928 29.408 107.136 73.856 136.224a280.32 280.32 0 0 0-109.856 68 278.912 278.912 0 0 0-82.24 198.496 20.8 20.8 0 1 0 41.6 0c0-131.84 107.296-239.168 239.168-239.168 100.352 0 186.304 62.176 221.728 149.984z m-221.632-192.448a121.184 121.184 0 0 1-121.024-120.992 121.12 121.12 0 0 1 121.024-121.024 121.12 121.12 0 0 1 120.992 121.024 121.088 121.088 0 0 1-120.992 120.992z" p-id="11816"></path><path d="M829.856 646.08c0.736 0 1.408-0.096 2.144-0.096 15.328 0 29.344 1.952 42.368 5.216a277.472 277.472 0 0 0-39.2-87.456 280.224 280.224 0 0 0-130.464-103.84 208 208 0 0 0 35.52-118.464 209.984 209.984 0 0 0-54.144-139.264 20.832 20.832 0 0 0-30.816 27.968 167.872 167.872 0 0 1 0.832 224.704 19.2 19.2 0 0 0-3.2 4.896 20.48 20.48 0 0 0-2.432 5.376 20.928 20.928 0 0 0 14.72 25.536 237.6 237.6 0 0 1 164.672 155.424zM871.648 784.736c0.576-4.544 0.992-9.056 0.992-13.76s-0.448-9.248-0.992-13.76l29.856-23.36a7.04 7.04 0 0 0 1.696-8.992l-28.224-48.896c-1.76-3.04-5.44-4.32-8.608-3.04l-35.168 14.176a109.44 109.44 0 0 0-23.84-13.92l-5.28-37.408a7.232 7.232 0 0 0-7.072-5.92H738.56c-3.52 0-6.4 2.592-6.976 5.92l-5.312 37.408a103.136 103.136 0 0 0-23.84 13.92l-35.136-14.176a7.104 7.104 0 0 0-8.64 3.04l-28.192 48.896a6.944 6.944 0 0 0 1.696 8.992l29.76 23.36c-0.576 4.512-0.96 9.056-0.96 13.76s0.416 9.216 0.96 13.76l-29.76 23.36a6.944 6.944 0 0 0-1.696 8.992l28.192 48.896c1.792 3.04 5.44 4.32 8.64 3.04l35.136-14.176c7.296 5.568 15.264 10.272 23.84 13.92l5.312 37.408a7.104 7.104 0 0 0 6.976 5.92h56.448c3.552 0 6.4-2.592 7.008-5.92l5.28-37.408c8.608-3.616 16.608-8.288 23.84-13.92l35.136 14.176c3.2 1.184 6.848 0 8.64-3.04l28.224-48.896a6.976 6.976 0 0 0-1.728-8.992l-29.76-23.36z m-104.8 35.648a49.344 49.344 0 1 1 0-98.752 49.344 49.344 0 1 1 0 98.752z" p-id="11817"></path></svg>
