<?xml version="1.0" standalone="no"?><!DOCTYPE svg PUBLIC "-//W3C//DTD SVG 1.1//EN" "http://www.w3.org/Graphics/SVG/1.1/DTD/svg11.dtd"><svg t="1561105012213" class="icon" viewBox="0 0 1024 1024" version="1.1" xmlns="http://www.w3.org/2000/svg" p-id="10749" xmlns:xlink="http://www.w3.org/1999/xlink" width="48" height="48"><defs><style type="text/css"></style></defs><path d="M601.6 355.2h-179.2c-35.2 0-64-28.8-64-64V115.2c0-35.2 28.8-64 64-64h179.2c35.2 0 64 28.8 64 64v179.2c0 32-28.8 60.8-64 60.8z m0-64v32-32z m-179.2-176v179.2h179.2V115.2h-179.2zM329.6 864H150.4c-35.2 0-64-28.8-64-64v-179.2c0-35.2 28.8-64 64-64h179.2c35.2 0 64 28.8 64 64V800c0 35.2-28.8 64-64 64z m0-64v32-32z m-179.2-179.2V800h179.2v-179.2H150.4z" p-id="10750"></path><path d="M934.4 643.2h-22.4c-3.2-12.8-9.6-25.6-16-38.4l19.2-19.2c12.8-12.8 12.8-35.2 0-48l-12.8-12.8c-12.8-12.8-35.2-12.8-48 0l-22.4 19.2c-12.8-6.4-25.6-12.8-38.4-16v-22.4c0-19.2-16-35.2-35.2-35.2h-16c-19.2 0-35.2 16-35.2 35.2v22.4c-12.8 3.2-25.6 9.6-38.4 16l-19.2-19.2c-12.8-12.8-35.2-12.8-48 0l-12.8 12.8c-12.8 12.8-12.8 35.2 0 48l19.2 19.2c-6.4 12.8-12.8 25.6-16 38.4h-22.4c-19.2 0-35.2 16-35.2 35.2v16c0 19.2 16 35.2 35.2 35.2h22.4c3.2 12.8 9.6 25.6 16 38.4l-22.4 22.4c-12.8 12.8-12.8 35.2 0 48l12.8 12.8c12.8 12.8 35.2 12.8 48 0l22.4-22.4c12.8 6.4 25.6 12.8 38.4 16v22.4c0 19.2 16 35.2 35.2 35.2h16c19.2 0 35.2-16 35.2-35.2v-22.4h3.2c9.6-3.2 12.8-16 6.4-22.4l-19.2-22.4c-3.2-3.2-9.6-6.4-12.8-3.2-12.8 3.2-25.6 3.2-38.4 0-48-6.4-86.4-48-92.8-96-9.6-73.6 51.2-131.2 124.8-124.8 48 6.4 86.4 44.8 96 92.8 3.2 12.8 3.2 25.6 0 38.4 0 6.4 0 9.6 3.2 12.8l22.4 19.2c6.4 6.4 19.2 3.2 22.4-6.4v-3.2h22.4c19.2 0 35.2-16 35.2-35.2v-16c3.2-19.2-12.8-35.2-32-35.2zM480 323.2h64v128h-64zM217.6 403.2h64v163.2h-64z" p-id="10751"></path><path d="M275.2 403.2H544v64H275.2z" p-id="10752"></path></svg>
