<?xml version="1.0" standalone="no"?><!DOCTYPE svg PUBLIC "-//W3C//DTD SVG 1.1//EN" "http://www.w3.org/Graphics/SVG/1.1/DTD/svg11.dtd"><svg t="1561104648455" class="icon" viewBox="0 0 1024 1024" version="1.1" xmlns="http://www.w3.org/2000/svg" p-id="9812" xmlns:xlink="http://www.w3.org/1999/xlink" width="48" height="48"><defs><style type="text/css"></style></defs><path d="M833.829 687.543c-16.092 0-29.258-13.166-29.258-29.257v-87.772H219.43v87.772c0 16.091-13.166 29.257-29.258 29.257s-29.257-13.166-29.257-29.257v-87.772c0-32.183 26.332-58.514 58.515-58.514H804.57c32.183 0 58.515 26.331 58.515 58.514v87.772c0 16.091-13.166 29.257-29.257 29.257z" fill="#ffffff" p-id="9813"></path><path d="M485.669 424.229h58.514v248.685h-58.514z" p-id="9814"></path><path d="M892.343 877.714H775.314c-32.183 0-58.514-26.331-58.514-58.514V702.171c0-32.182 26.331-58.514 58.514-58.514h117.029c32.183 0 58.514 26.332 58.514 58.514V819.2c0 32.183-26.331 58.514-58.514 58.514zM775.314 702.171V819.2h117.029V702.171H775.314z m-204.8 175.543H453.486c-32.183 0-58.515-26.331-58.515-58.514V702.171c0-32.182 26.332-58.514 58.515-58.514h117.028c32.183 0 58.515 26.332 58.515 58.514V819.2c0 32.183-26.332 58.514-58.515 58.514zM453.486 702.171V819.2h117.028V702.171H453.486z m-204.8 175.543H131.657c-32.183 0-58.514-26.331-58.514-58.514V702.171c0-32.182 26.331-58.514 58.514-58.514h117.029c32.183 0 58.514 26.332 58.514 58.514V819.2c0 32.183-26.331 58.514-58.514 58.514zM131.657 702.171V819.2h117.029V702.171H131.657z m526.629-263.314H365.714c-32.183 0-58.514-26.331-58.514-58.514V204.8c0-32.183 26.331-58.514 58.514-58.514h292.572c32.183 0 58.514 26.331 58.514 58.514v175.543c0 32.183-26.331 58.514-58.514 58.514zM365.714 204.8v175.543h292.572V204.8H365.714z" p-id="9815"></path></svg>
