<?xml version="1.0" standalone="no"?><!DOCTYPE svg PUBLIC "-//W3C//DTD SVG 1.1//EN" "http://www.w3.org/Graphics/SVG/1.1/DTD/svg11.dtd"><svg t="1563849363924" class="icon" viewBox="0 0 1353 1024" version="1.1" xmlns="http://www.w3.org/2000/svg" p-id="18553" xmlns:xlink="http://www.w3.org/1999/xlink" width="169.125" height="128"><defs><style type="text/css"></style></defs><path d="M909.922641 979.849285h-47.18397v-826.663156a106.083046 106.083046 0 0 0-105.961715-105.961716H300.265305a106.083046 106.083046 0 0 0-105.961716 105.961716v826.663156h-47.18397v-826.663156A153.320941 153.320941 0 0 1 300.265305 0h456.511651a153.320941 153.320941 0 0 1 153.145685 153.186129z" p-id="18554"></path><path d="M1232.782327 979.849285h-47.18397v-424.655731a106.083046 106.083046 0 0 0-105.961716-105.961715H888.379789v-47.18397h191.256852a153.320941 153.320941 0 0 1 153.145686 153.145685zM278.655046 219.014508h370.771637v47.18397H278.655046zM278.655046 377.876195h370.771637v47.18397H278.655046zM278.655046 536.737881h370.771637v47.183971H278.655046z" p-id="18555"></path><path d="M0 976.81603h1353.141894v47.18397H0z" p-id="18556"></path></svg>