<?xml version="1.0" standalone="no"?><!DOCTYPE svg PUBLIC "-//W3C//DTD SVG 1.1//EN" "http://www.w3.org/Graphics/SVG/1.1/DTD/svg11.dtd"><svg t="1583982581128" class="icon" viewBox="0 0 1661 1024" version="1.1" xmlns="http://www.w3.org/2000/svg" p-id="2811" xmlns:xlink="http://www.w3.org/1999/xlink" width="25.953125" height="16"><defs><style type="text/css"></style></defs><path d="M205.622 606.374h162.23v417.342h-162.23V606.374z m277.804-154.997h162.229v572.34h-162.23v-572.34z m292.125 88.772h162.23V1024H775.55V540.149z m258.376-216.542h162.229V1024h-162.23V323.607zM1115.04 0c-40.132 0-72.748 32.474-72.748 72.748 0 3.97 1.702 7.374 2.27 11.203L899.491 224.34c-11.345-7.232-23.966-12.479-38.288-12.479-27.937 0-51.477 16.308-63.672 39.423l-164.498-32.332c-9.076-29.922-35.736-52.044-68.494-52.044-35.452 0-63.53 25.809-70.053 59.418l-164.64 98.698c-12.196-9.217-26.66-15.74-43.11-15.74-40.132 0-72.748 32.474-72.748 72.747 0 40.132 32.474 72.748 72.748 72.748 35.452 0 63.53-25.809 70.053-59.418l164.64-98.698c12.196 9.217 26.66 15.74 43.11 15.74 19.57 0 37.012-7.94 50.2-20.42l189.74 37.437c13.33 15.458 32.333 25.668 54.313 25.668 36.02 0 64.665-26.802 70.337-61.262l164.214-152.87c6.949 2.27 13.898 4.397 21.555 4.397 40.132 0 72.748-32.474 72.748-72.748 0-40.132-32.474-72.606-72.606-72.606z"  p-id="2812"></path></svg>
