<?xml version="1.0" standalone="no"?><!DOCTYPE svg PUBLIC "-//W3C//DTD SVG 1.1//EN" "http://www.w3.org/Graphics/SVG/1.1/DTD/svg11.dtd"><svg t="1561105145002" class="icon" viewBox="0 0 1042 1024" version="1.1" xmlns="http://www.w3.org/2000/svg" p-id="16233" xmlns:xlink="http://www.w3.org/1999/xlink" width="48.84375" height="48"><defs><style type="text/css"></style></defs><path d="M167.563636 0h623.709091c121.018182 0 195.490909 74.472727 195.490909 195.490909v46.545455c0 27.927273-9.309091 37.236364-37.236363 37.236363-27.927273 0-37.236364-18.618182-37.236364-37.236363 0-27.927273 0-55.854545-9.309091-74.472728-9.309091-55.854545-46.545455-83.781818-102.4-83.781818h-623.709091c-65.163636 0-102.4 46.545455-102.4 121.018182V800.581818c0 74.472727 46.545455 121.018182 121.018182 121.018182h111.709091c27.927273 0 46.545455 18.618182 46.545455 37.236364 0 27.927273-18.618182 37.236364-46.545455 37.236363h-158.254545c-65.163636 0-148.945455-74.472727-148.945455-139.636363v-688.872728c18.618182-93.090909 83.781818-148.945455 167.563636-167.563636z" p-id="16234"></path><path d="M744.727273 214.109091c83.781818 0 148.945455 46.545455 176.872727 130.327273 37.236364 83.781818 18.618182 158.254545-46.545455 223.418181-18.618182 18.618182-18.618182 27.927273 9.309091 46.545455 83.781818 55.854545 139.636364 139.636364 158.254546 242.036364 0 27.927273-9.309091 55.854545-27.927273 55.854545-18.618182 0-37.236364-18.618182-46.545454-46.545454-18.618182-121.018182-130.327273-232.727273-251.345455-223.418182-83.781818 0-139.636364 55.854545-186.181818 121.018182-27.927273 37.236364-37.236364 74.472727-46.545455 111.70909 0 27.927273-18.618182 46.545455-46.545454 46.545455-18.618182 0-37.236364-27.927273-27.927273-55.854545 9.309091-111.709091 74.472727-186.181818 158.254545-251.345455 18.618182-9.309091 27.927273-18.618182 9.309091-37.236364-65.163636-65.163636-74.472727-139.636364-46.545454-223.418181 37.236364-93.090909 111.709091-139.636364 214.109091-139.636364z m-18.618182 344.436364c74.472727 0 130.327273-65.163636 130.327273-139.636364s-65.163636-139.636364-139.636364-139.636364-130.327273 65.163636-130.327273 139.636364c9.309091 83.781818 65.163636 139.636364 139.636364 139.636364z m-400.290909-204.8h-121.018182c-27.927273 0-46.545455-18.618182-46.545455-37.236364s18.618182-37.236364 46.545455-37.236364h251.345455c27.927273 0 46.545455 18.618182 46.545454 37.236364s-18.618182 37.236364-46.545454 37.236364h-130.327273z m-27.927273 139.636363h93.090909c18.618182 0 37.236364 9.309091 37.236364 37.236364 0 27.927273-18.618182 37.236364-37.236364 37.236363h-204.8c-27.927273 0-37.236364-9.309091-37.236363-37.236363 0-18.618182 18.618182-37.236364 37.236363-37.236364h111.709091z" p-id="16235"></path></svg>
