<?xml version="1.0" standalone="no"?><!DOCTYPE svg PUBLIC "-//W3C//DTD SVG 1.1//EN" "http://www.w3.org/Graphics/SVG/1.1/DTD/svg11.dtd"><svg t="1583217273907" class="icon" viewBox="0 0 1024 1024" version="1.1" xmlns="http://www.w3.org/2000/svg" p-id="1234" width="16" height="16" xmlns:xlink="http://www.w3.org/1999/xlink"><defs><style type="text/css"></style></defs><path d="M909.141333 676.757333h-19.264v-119.232a31.082667 31.082667 0 0 0-13.205333-24.896 40.704 40.704 0 0 0-29.418667-6.229333 686.293333 686.293333 0 0 0-334.421333 84.928 695.893333 695.893333 0 0 0-335.082667-84.330667 40.106667 40.106667 0 0 0-29.397333 6.208 31.04 31.04 0 0 0-13.226667 24.896v119.445334c-1.237333 0-1.813333-0.576-2.986666-0.576h-16.874667a19.584 19.584 0 0 0-19.84 18.666666v70.165334a19.584 19.584 0 0 0 19.84 18.688h16.874667a5.781333 5.781333 0 0 0 2.986666-0.597334v113.813334a41.877333 41.877333 0 0 0 33.088 37.354666c1.813333 0.576 4.202667 0.576 6.016 1.130667a789.973333 789.973333 0 0 1 314.005334 80.384c6.976 5.034667 15.445333 7.616 24.064 7.338667h1.237333c8.234667 0.298667 16.298667-2.304 22.826667-7.338667a792.554667 792.554667 0 0 1 314.005333-80.384 18.794667 18.794667 0 0 0 6.037333-1.130667 41.92 41.92 0 0 0 33.088-37.354666v-113.813334h19.242667a19.562667 19.562667 0 0 0 19.84-18.666666v-70.464a18.389333 18.389333 0 0 0-18.837333-18.005334h-0.597334zM477.674667 949.546667a796.629333 796.629333 0 0 0-281.770667-69.098667V587.413333A598.954667 598.954667 0 0 1 477.674667 661.333333v288.213334z m350.336-70.037334a790.890667 790.890667 0 0 0-276.821334 67.264V659.029333a592.853333 592.853333 0 0 1 276.821334-72.106666v292.586666zM358.208 404.821333l-37.632 18.133334a23.829333 23.829333 0 0 0-10.688 33.962666 29.397333 29.397333 0 0 0 37.632 9.792l65.237333-31.701333c32.341333 12.885333 66.837333 19.434667 101.653334 19.264a265.173333 265.173333 0 0 0 92.864-16.426667l64 33.408a29.376 29.376 0 0 0 36.992-10.197333 23.808 23.808 0 0 0-10.666667-33.962667l-33.877333-18.133333a220.458667 220.458667 0 0 0 101.653333-182.293333C751.104 88.042667 627.178667-12.757333 488.576 1.493333a252.309333 252.309333 0 0 0-225.173333 225.173334 218.026667 218.026667 0 0 0 94.805333 178.154666z m154.304-338.154666a188.373333 188.373333 0 0 1 129.941333 50.517333 152.490667 152.490667 0 0 1 49.002667 110.421333 143.36 143.36 0 0 1-14.698667 62.933334 179.669333 179.669333 0 0 1-164.373333 98.517333 161.749333 161.749333 0 1 1 0-322.133333l0.128-0.256z" p-id="1235" ></path></svg>
