<?xml version="1.0" standalone="no"?><!DOCTYPE svg PUBLIC "-//W3C//DTD SVG 1.1//EN" "http://www.w3.org/Graphics/SVG/1.1/DTD/svg11.dtd"><svg t="1583217459111" class="icon" viewBox="0 0 1024 1024" version="1.1" xmlns="http://www.w3.org/2000/svg" p-id="2839" xmlns:xlink="http://www.w3.org/1999/xlink" width="16" height="16"><defs><style type="text/css"></style></defs><path d="M651.635864 139.635864C651.635864 62.835939 588.799925 0 512 0S372.364136 62.835939 372.364136 139.635864 435.200075 279.272727 512 279.272727s139.635864-62.836939 139.635864-139.636863zM512 232.726773c-51.19995 0-93.089909-41.889959-93.089909-93.089909S460.80005 46.543955 512 46.543955s93.089909 41.890959 93.089909 93.090909-41.889959 93.090909-93.089909 93.090909z m488.726523 418.909591H837.817682L691.199825 311.853695c-4.654995-18.618982-26.763974-32.581968-50.035951-32.581968H382.836126c-23.271977 0-45.380956 13.962986-50.035951 32.581968L186.182318 651.635364H23.272477C10.47349 651.635364 0.0005 662.109353 0.0005 674.909341s10.47299 23.272977 23.272977 23.272977H93.090409v302.544705c0 12.799988 10.47299 23.272977 23.272977 23.272977h791.271228c12.799988 0 23.272977-10.47299 23.272977-23.272977V698.181318h69.817932c12.799988 0 23.272977-10.47299 23.272977-23.272977s-10.47299-23.272977-23.272977-23.272977zM374.691134 330.471677c0-1.163999 1.163999-1.163999 1.163999-2.327997 1.162999-1.162999 3.489997-2.326998 6.980993-2.326998h258.327748c2.326998 0 4.653995 1.163999 6.980993 2.326998 0 1.163999 1.163999 1.163999 1.163999 2.327997l137.309866 321.162687H694.689822L602.763911 435.199575c-3.490997-12.799988-16.290984-18.617982-27.927972-15.126985s-18.617982 17.453983-15.126986 29.089971l86.109916 202.472803H378.181131l86.108916-202.471803c3.489997-12.799988-2.326998-25.599975-15.126986-29.090971-11.636989-3.490997-24.436976 2.326998-27.927972 15.126985L329.310178 651.635364h-91.92691L374.690134 330.472677z m509.672502 646.981368H139.636364V698.181318h744.727272v279.272727z" p-id="2840"></path></svg>