<?xml version="1.0" standalone="no"?><!DOCTYPE svg PUBLIC "-//W3C//DTD SVG 1.1//EN" "http://www.w3.org/Graphics/SVG/1.1/DTD/svg11.dtd"><svg t="1543808737784" class="icon" style="" viewBox="0 0 1024 1024" version="1.1" xmlns="http://www.w3.org/2000/svg" p-id="2565" xmlns:xlink="http://www.w3.org/1999/xlink" width="48" height="48"><defs><style type="text/css"></style></defs><path d="M551.936 903.68c0 42.569143 25.6 72.411429 46.957714 80.969143 4.242286 4.242286 21.211429 17.042286 42.569143 29.842286-38.326857 4.242286-80.969143 4.242286-132.096 4.242285-127.926857 0-221.622857-4.242286-289.865143-12.8C-31.963429 971.849143 44.617143 890.88 57.490286 839.68 74.605714 720.457143 326.070857 660.699429 398.628571 605.257143c8.484571-8.484571 21.211429-21.284571 21.211429-29.842286 0-29.842286-16.969143-46.811429-16.969143-46.811428s-127.853714-81.042286-123.611428-285.622858C283.428571 153.453714 330.386286 0 500.809143 0h8.557714c166.180571 0 217.380571 157.696 221.622857 242.980571 4.242286 217.380571-123.611429 285.549714-123.611428 285.549715v4.315428a119.954286 119.954286 0 0 0-55.442286 102.253715v268.580571z m383.634286-306.907429c25.6 0 42.642286 17.042286 42.642285 38.326858v268.580571c0 8.484571-8.484571 12.726857-8.484571 12.726857l-144.969143 98.011429c-8.484571 8.557714-12.8 8.557714-17.042286 8.557714-4.242286 0-8.484571 0-17.042285-4.242286l-144.896-98.011428s-8.557714-8.557714-8.557715-17.042286V635.099429c0-21.284571 21.284571-38.326857 42.642286-38.326858h255.707429z m-4.242286 149.211429c8.557714-4.315429 4.242286-17.115429-8.484571-21.357714a1544.777143 1544.777143 0 0 1-64-12.8s-21.284571-34.084571-34.084572-55.369143c-12.8-17.115429-12.8-17.115429-17.042286-17.115429-4.242286 0-4.242286 0-21.284571 21.357715-12.8 21.284571-34.157714 55.369143-34.157714 55.369142s-38.326857 8.557714-63.926857 12.8c-12.8 0-12.8 8.557714-8.484572 17.042286 17.042286 17.042286 46.811429 51.2 46.811429 51.2s-4.169143 34.084571-8.484572 59.684572a18.285714 18.285714 0 0 0 17.042286 17.042285h8.557714c25.6-12.8 55.442286-25.6 63.926857-29.842285 4.242286 4.242286 38.4 21.284571 59.684572 29.842285h8.484571a18.285714 18.285714 0 0 0 17.115429-17.042285c-4.315429-25.6-8.557714-59.684571-8.557714-59.684572s29.842286-29.842286 46.884571-51.2z" p-id="2566" fill="#ffffff"></path></svg>